<?xml version="1.0" encoding="utf-8"?>
<!-- Generator: Adobe Illustrator 25.4.1, SVG Export Plug-In . SVG Version: 6.00 Build 0)  -->
<svg version="1.1" id="Layer_1" xmlns="http://www.w3.org/2000/svg" xmlns:xlink="http://www.w3.org/1999/xlink" x="0px" y="0px"
	 viewBox="0 0 43 163.8" style="enable-background:new 0 0 43 163.8;" xml:space="preserve">
<style type="text/css">
	.st0{fill:#A8954D;stroke:#A8954D;}
	.st1{fill:none;stroke:#A8954D;stroke-width:3;}
</style>
<path class="st0" d="M16.3,127.8c0-0.1,0-0.1,0.1-0.2l0.1,0.1c2.7-2.8,4-6.7,4.7-9.8c0.1-0.5,0.2-1,0.3-1.4
	c0.8,4.4,2.3,8.2,4.5,10.8l0.3-0.2c0,0.2,0,0.3,0.1,0.5l0,0.1l0.1,0.1c2.3,2.5,5.4,3.8,9.2,3.6c-3.6,5.2-7.3,13-10,19.5
	c-1.5,3.5-2.7,6.7-3.6,8.9c-0.4,1-0.7,1.8-0.9,2.4c-0.9-2.4-1.6-4.5-2.3-6.5c-4.4-12.3-5.8-16.3-11.8-24.4c4,0.1,6.9-1.3,9.1-3.4
	l0.1-0.1L16.3,127.8z M27.7,123.4c-0.3,0.3-0.5,0.5-0.7,0.8c0.4-1.6,1.7-3.3,3.5-4.5c2.8-1.9,6.7-2.7,10.8-1.4c0.7,0.2,1,0.6,1.2,1
	c0.2,0.4,0.1,0.9-0.2,1.4c-0.6,0.9-2.2,1.9-5.2,1.5C31.9,121.4,29.1,122.1,27.7,123.4z M13,119.6c1.6,1.2,2.6,2.7,3,4.2
	c-0.1-0.1-0.1-0.2-0.2-0.3c-1.3-1.6-4.1-2.5-9.9-1.7h0c-3,0.4-4.6-0.5-5.2-1.4c-0.3-0.5-0.3-1-0.2-1.4c0.2-0.4,0.5-0.8,1.2-1
	C6.1,116.4,10.3,117.5,13,119.6z"/>
<path class="st1" d="M21.5,134L21,0"/>
</svg>
