<svg width="30" height="22" viewBox="0 0 30 22" fill="none" xmlns="http://www.w3.org/2000/svg">
<path d="M29.3731 3.30045C29.0281 2.00132 28.0115 0.978166 26.7208 0.630944C24.3813 0 15 0 15 0C15 0 5.61879 0 3.27919 0.630944C1.98847 0.978221 0.971904 2.00132 0.626879 3.30045C0 5.65521 0 10.5682 0 10.5682C0 10.5682 0 15.4811 0.626879 17.8359C0.971904 19.135 1.98847 20.1156 3.27919 20.4628C5.61879 21.0937 15 21.0937 15 21.0937C15 21.0937 24.3812 21.0937 26.7208 20.4628C28.0115 20.1156 29.0281 19.135 29.3731 17.8359C30 15.4811 30 10.5682 30 10.5682C30 10.5682 30 5.65521 29.3731 3.30045ZM11.9318 15.0288V6.10757L19.7727 10.5683L11.9318 15.0288Z" fill="#F8DB51"/>
</svg>
